---
title: ".cue sheet error...?"
date: 2006-04-07
forum: Desktop Environments
---

### Post by GabrielWolff on 2006-04-07
Hey, I have a cue sheet for an .ape file, but k3b says it's wrong ("Seems not to be a usable image").

I coouldn't find out, why, though.

Could anyone look at it?
```

PERFORMER "Hector Moreno - Norberto Capelli"

TITLE "Tangos y Malambos - piano duet ( Piazzolla e Ginastera )"

FILE "CDImage.ape" WAVE

  TRACK 01 AUDIO

    TITLE "Verano porteno"

    PERFORMER "Hector Moreno - Norberto Capelli"

    INDEX 00 00:00:00

    INDEX 01 00:00:30

  TRACK 02 AUDIO

    TITLE "Otono porteno"

    PERFORMER "Hector Moreno - Norberto Capelli"

    INDEX 01 03:31:13

  TRACK 03 AUDIO

    TITLE "Invierno porteno"

    PERFORMER "Hector Moreno - Norberto Capelli"

    INDEX 01 06:25:27

  TRACK 04 AUDIO

    TITLE "Primavera porteno"

    PERFORMER "Hector Moreno - Norberto Capelli"

    INDEX 01 10:04:56

  TRACK 05 AUDIO

    TITLE "Tangazo"

    PERFORMER "Hector Moreno - Norberto Capelli"

    INDEX 01 13:15:07

  TRACK 06 AUDIO

    TITLE "Milonga del angel"

    PERFORMER "Hector Moreno - Norberto Capelli"

    INDEX 01 25:48:62

  TRACK 07 AUDIO

    TITLE "Muerte del angel"

    PERFORMER "Hector Moreno - Norberto Capelli"

    INDEX 01 30:01:57

  TRACK 08 AUDIO

    TITLE "Resurreccion del angel"

    PERFORMER "Hector Moreno - Norberto Capelli"

    INDEX 01 32:17:40

  TRACK 09 AUDIO

    TITLE "Adiòs nonino"

    PERFORMER "Hector Moreno - Norberto Capelli"

    INDEX 01 37:58:55

  TRACK 10 AUDIO

    TITLE "Los trabajadores agricolas"

    PERFORMER "Hector Moreno - Norberto Capelli"

    INDEX 01 46:48:64

  TRACK 11 AUDIO

    TITLE "Danza del trigo"

    PERFORMER "Hector Moreno - Norberto Capelli"

    INDEX 01 49:49:69

  TRACK 12 AUDIO

    TITLE "Los peones de hacienda"

    PERFORMER "Hector Moreno - Norberto Capelli"

    INDEX 01 52:52:65

  TRACK 13 AUDIO

    TITLE "Danza final: Malambo"

    PERFORMER "Hector Moreno - Norberto Capelli"

    INDEX 01 54:24:43

  TRACK 14 AUDIO

    TITLE "Danza del viejo boyero"

    PERFORMER "Hector Moreno - Norberto Capelli"

    INDEX 01 57:29:65

  TRACK 15 AUDIO

    TITLE "Danza de la moza donosa"

    PERFORMER "Hector Moreno - Norberto Capelli"

    INDEX 01 58:56:68

  TRACK 16 AUDIO

    TITLE "Danza del gaucho matrero"

    PERFORMER "Hector Moreno - Norberto Capelli"

    INDEX 01 62:31:65

```

Thanx

Gabriel

---

